<svg  fill="#fff4e6" viewBox="-45 0 512 512"  xmlns="http://www.w3.org/2000/svg"><path d="m0 0v512h315.132812l106.796876-106.792969v-405.207031zm30 30h361.929688v353.992188h-98.007813v98.007812h-263.921875zm340.714844 383.992188-46.792969 46.792968v-46.792968zm0 0"/><path d="m60.035156 421.953125h113.261719v30h-113.261719zm0 0"/><path d="m60.035156 361.902344h113.261719v30h-113.261719zm0 0"/><path d="m60.035156 301.855469h301.855469v30h-301.855469zm0 0"/><path d="m60.035156 241.808594h301.855469v30h-301.855469zm0 0"/><path d="m180.929688 182.152344c0-19.835938-9.609376-37.46875-24.410157-48.496094 5.644531-7.519531 8.992188-16.859375 8.992188-26.96875 0-24.824219-20.195313-45.023438-45.023438-45.023438-24.824219 0-45.023437 20.199219-45.023437 45.023438 0 10.109375 3.347656 19.449219 8.992187 26.96875-14.800781 11.027344-24.410156 28.660156-24.410156 48.496094v29.609375h120.882813zm-75.464844-75.464844c0-8.285156 6.738281-15.023438 15.023437-15.023438 8.285157 0 15.023438 6.738282 15.023438 15.023438s-6.738281 15.023438-15.023438 15.023438c-8.285156 0-15.023437-6.738282-15.023437-15.023438zm-15.414063 75.074219c.210938-16.605469 13.785157-30.050781 30.4375-30.050781 16.65625 0 30.226563 13.445312 30.4375 30.050781zm0 0"/><path d="m210.964844 61.664062h150.925781v30h-150.925781zm0 0"/><path d="m210.964844 121.710938h150.925781v30h-150.925781zm0 0"/><path d="m210.964844 181.761719h150.925781v30h-150.925781zm0 0"/></svg>